<mxfile host="app.diagrams.net" modified="2024-06-08T13:36:04.470Z" agent="Mozilla/5.0 (Windows NT 10.0; Win64; x64) AppleWebKit/537.36 (KHTML, like Gecko) Chrome/125.0.0.0 Safari/537.36 Edg/125.0.0.0" etag="XTToqjqBYMfQYQQr737i" version="24.5.2" type="github">
  <diagram id="C5RBs43oDa-KdzZeNtuy" name="Page-1">
    <mxGraphModel dx="1042" dy="577" grid="1" gridSize="10" guides="1" tooltips="1" connect="1" arrows="1" fold="1" page="1" pageScale="1" pageWidth="827" pageHeight="1169" math="0" shadow="0">
      <root>
        <mxCell id="WIyWlLk6GJQsqaUBKTNV-0" />
        <mxCell id="WIyWlLk6GJQsqaUBKTNV-1" parent="WIyWlLk6GJQsqaUBKTNV-0" />
        <mxCell id="n2wN_XqHJBVtsgaDFKkF-12" style="edgeStyle=orthogonalEdgeStyle;rounded=0;orthogonalLoop=1;jettySize=auto;html=1;exitX=0.5;exitY=1;exitDx=0;exitDy=0;entryX=0.5;entryY=0;entryDx=0;entryDy=0;" edge="1" parent="WIyWlLk6GJQsqaUBKTNV-1" source="n2wN_XqHJBVtsgaDFKkF-0" target="n2wN_XqHJBVtsgaDFKkF-10">
          <mxGeometry relative="1" as="geometry" />
        </mxCell>
        <mxCell id="n2wN_XqHJBVtsgaDFKkF-0" value="Начало" style="ellipse;whiteSpace=wrap;html=1;" vertex="1" parent="WIyWlLk6GJQsqaUBKTNV-1">
          <mxGeometry x="270" y="20" width="100" height="40" as="geometry" />
        </mxCell>
        <mxCell id="n2wN_XqHJBVtsgaDFKkF-14" style="edgeStyle=orthogonalEdgeStyle;rounded=0;orthogonalLoop=1;jettySize=auto;html=1;exitX=0.5;exitY=1;exitDx=0;exitDy=0;entryX=0.5;entryY=0;entryDx=0;entryDy=0;" edge="1" parent="WIyWlLk6GJQsqaUBKTNV-1" source="n2wN_XqHJBVtsgaDFKkF-2" target="n2wN_XqHJBVtsgaDFKkF-3">
          <mxGeometry relative="1" as="geometry" />
        </mxCell>
        <mxCell id="n2wN_XqHJBVtsgaDFKkF-2" value="Перебор публикаций" style="rounded=0;whiteSpace=wrap;html=1;" vertex="1" parent="WIyWlLk6GJQsqaUBKTNV-1">
          <mxGeometry x="260" y="170" width="120" height="50" as="geometry" />
        </mxCell>
        <mxCell id="n2wN_XqHJBVtsgaDFKkF-15" style="edgeStyle=orthogonalEdgeStyle;rounded=0;orthogonalLoop=1;jettySize=auto;html=1;exitX=0.5;exitY=1;exitDx=0;exitDy=0;entryX=0.5;entryY=0;entryDx=0;entryDy=0;" edge="1" parent="WIyWlLk6GJQsqaUBKTNV-1" source="n2wN_XqHJBVtsgaDFKkF-3" target="n2wN_XqHJBVtsgaDFKkF-4">
          <mxGeometry relative="1" as="geometry" />
        </mxCell>
        <mxCell id="n2wN_XqHJBVtsgaDFKkF-21" style="edgeStyle=orthogonalEdgeStyle;rounded=0;orthogonalLoop=1;jettySize=auto;html=1;exitX=1;exitY=0.5;exitDx=0;exitDy=0;entryX=1;entryY=0.5;entryDx=0;entryDy=0;" edge="1" parent="WIyWlLk6GJQsqaUBKTNV-1" source="n2wN_XqHJBVtsgaDFKkF-3" target="n2wN_XqHJBVtsgaDFKkF-5">
          <mxGeometry relative="1" as="geometry" />
        </mxCell>
        <mxCell id="n2wN_XqHJBVtsgaDFKkF-3" value="Подходит дата публикации?" style="rhombus;whiteSpace=wrap;html=1;" vertex="1" parent="WIyWlLk6GJQsqaUBKTNV-1">
          <mxGeometry x="250" y="260" width="140" height="70" as="geometry" />
        </mxCell>
        <mxCell id="n2wN_XqHJBVtsgaDFKkF-16" style="edgeStyle=orthogonalEdgeStyle;rounded=0;orthogonalLoop=1;jettySize=auto;html=1;exitX=0.5;exitY=1;exitDx=0;exitDy=0;entryX=0.5;entryY=0;entryDx=0;entryDy=0;" edge="1" parent="WIyWlLk6GJQsqaUBKTNV-1" source="n2wN_XqHJBVtsgaDFKkF-4" target="n2wN_XqHJBVtsgaDFKkF-6">
          <mxGeometry relative="1" as="geometry" />
        </mxCell>
        <mxCell id="n2wN_XqHJBVtsgaDFKkF-4" value="Сбор данных с публикации" style="rounded=0;whiteSpace=wrap;html=1;" vertex="1" parent="WIyWlLk6GJQsqaUBKTNV-1">
          <mxGeometry x="266.25" y="360" width="107.5" height="40" as="geometry" />
        </mxCell>
        <mxCell id="n2wN_XqHJBVtsgaDFKkF-18" style="edgeStyle=orthogonalEdgeStyle;rounded=0;orthogonalLoop=1;jettySize=auto;html=1;exitX=0.5;exitY=1;exitDx=0;exitDy=0;entryX=0.5;entryY=0;entryDx=0;entryDy=0;" edge="1" parent="WIyWlLk6GJQsqaUBKTNV-1" source="n2wN_XqHJBVtsgaDFKkF-5" target="n2wN_XqHJBVtsgaDFKkF-9">
          <mxGeometry relative="1" as="geometry" />
        </mxCell>
        <mxCell id="n2wN_XqHJBVtsgaDFKkF-25" style="edgeStyle=orthogonalEdgeStyle;rounded=0;orthogonalLoop=1;jettySize=auto;html=1;exitX=0;exitY=0.5;exitDx=0;exitDy=0;entryX=0;entryY=0.5;entryDx=0;entryDy=0;" edge="1" parent="WIyWlLk6GJQsqaUBKTNV-1" source="n2wN_XqHJBVtsgaDFKkF-5" target="n2wN_XqHJBVtsgaDFKkF-2">
          <mxGeometry relative="1" as="geometry" />
        </mxCell>
        <mxCell id="n2wN_XqHJBVtsgaDFKkF-5" value="Это последняя публикация?" style="rhombus;whiteSpace=wrap;html=1;" vertex="1" parent="WIyWlLk6GJQsqaUBKTNV-1">
          <mxGeometry x="250" y="514.5" width="140" height="70" as="geometry" />
        </mxCell>
        <mxCell id="n2wN_XqHJBVtsgaDFKkF-17" style="edgeStyle=orthogonalEdgeStyle;rounded=0;orthogonalLoop=1;jettySize=auto;html=1;exitX=0.5;exitY=1;exitDx=0;exitDy=0;entryX=0.5;entryY=0;entryDx=0;entryDy=0;" edge="1" parent="WIyWlLk6GJQsqaUBKTNV-1" source="n2wN_XqHJBVtsgaDFKkF-6" target="n2wN_XqHJBVtsgaDFKkF-5">
          <mxGeometry relative="1" as="geometry" />
        </mxCell>
        <mxCell id="n2wN_XqHJBVtsgaDFKkF-6" value="Обработка информации" style="rounded=0;whiteSpace=wrap;html=1;" vertex="1" parent="WIyWlLk6GJQsqaUBKTNV-1">
          <mxGeometry x="263.13" y="440" width="113.75" height="30" as="geometry" />
        </mxCell>
        <mxCell id="n2wN_XqHJBVtsgaDFKkF-20" style="edgeStyle=orthogonalEdgeStyle;rounded=0;orthogonalLoop=1;jettySize=auto;html=1;exitX=0.5;exitY=1;exitDx=0;exitDy=0;entryX=0.5;entryY=0;entryDx=0;entryDy=0;" edge="1" parent="WIyWlLk6GJQsqaUBKTNV-1" source="n2wN_XqHJBVtsgaDFKkF-8" target="n2wN_XqHJBVtsgaDFKkF-11">
          <mxGeometry relative="1" as="geometry" />
        </mxCell>
        <mxCell id="n2wN_XqHJBVtsgaDFKkF-28" style="edgeStyle=orthogonalEdgeStyle;rounded=0;orthogonalLoop=1;jettySize=auto;html=1;exitX=1;exitY=0.5;exitDx=0;exitDy=0;entryX=1;entryY=0.25;entryDx=0;entryDy=0;" edge="1" parent="WIyWlLk6GJQsqaUBKTNV-1" source="n2wN_XqHJBVtsgaDFKkF-8" target="n2wN_XqHJBVtsgaDFKkF-10">
          <mxGeometry relative="1" as="geometry">
            <Array as="points">
              <mxPoint x="455" y="760" />
              <mxPoint x="455" y="108" />
            </Array>
          </mxGeometry>
        </mxCell>
        <mxCell id="n2wN_XqHJBVtsgaDFKkF-8" value="Необходимо обработать другие данные?" style="rhombus;whiteSpace=wrap;html=1;" vertex="1" parent="WIyWlLk6GJQsqaUBKTNV-1">
          <mxGeometry x="205.01" y="710" width="230" height="100" as="geometry" />
        </mxCell>
        <mxCell id="n2wN_XqHJBVtsgaDFKkF-19" style="edgeStyle=orthogonalEdgeStyle;rounded=0;orthogonalLoop=1;jettySize=auto;html=1;exitX=0.5;exitY=1;exitDx=0;exitDy=0;entryX=0.5;entryY=0;entryDx=0;entryDy=0;" edge="1" parent="WIyWlLk6GJQsqaUBKTNV-1" source="n2wN_XqHJBVtsgaDFKkF-9" target="n2wN_XqHJBVtsgaDFKkF-8">
          <mxGeometry relative="1" as="geometry" />
        </mxCell>
        <mxCell id="n2wN_XqHJBVtsgaDFKkF-9" value="Вывод статистики" style="shape=parallelogram;perimeter=parallelogramPerimeter;whiteSpace=wrap;html=1;fixedSize=1;" vertex="1" parent="WIyWlLk6GJQsqaUBKTNV-1">
          <mxGeometry x="245" y="630" width="150" height="30" as="geometry" />
        </mxCell>
        <mxCell id="n2wN_XqHJBVtsgaDFKkF-13" style="edgeStyle=orthogonalEdgeStyle;rounded=0;orthogonalLoop=1;jettySize=auto;html=1;exitX=0.5;exitY=1;exitDx=0;exitDy=0;entryX=0.5;entryY=0;entryDx=0;entryDy=0;" edge="1" parent="WIyWlLk6GJQsqaUBKTNV-1" source="n2wN_XqHJBVtsgaDFKkF-10" target="n2wN_XqHJBVtsgaDFKkF-2">
          <mxGeometry relative="1" as="geometry" />
        </mxCell>
        <mxCell id="n2wN_XqHJBVtsgaDFKkF-10" value="Ввод периода времени" style="shape=parallelogram;perimeter=parallelogramPerimeter;whiteSpace=wrap;html=1;fixedSize=1;" vertex="1" parent="WIyWlLk6GJQsqaUBKTNV-1">
          <mxGeometry x="240.01" y="100" width="159.99" height="30" as="geometry" />
        </mxCell>
        <mxCell id="n2wN_XqHJBVtsgaDFKkF-11" value="Конец" style="ellipse;whiteSpace=wrap;html=1;" vertex="1" parent="WIyWlLk6GJQsqaUBKTNV-1">
          <mxGeometry x="265.01" y="860" width="110" height="40" as="geometry" />
        </mxCell>
        <mxCell id="n2wN_XqHJBVtsgaDFKkF-22" value="ДА" style="text;html=1;align=center;verticalAlign=middle;resizable=0;points=[];autosize=1;strokeColor=none;fillColor=none;" vertex="1" parent="WIyWlLk6GJQsqaUBKTNV-1">
          <mxGeometry x="280" y="320" width="40" height="30" as="geometry" />
        </mxCell>
        <mxCell id="n2wN_XqHJBVtsgaDFKkF-23" value="НЕТ" style="text;html=1;align=center;verticalAlign=middle;resizable=0;points=[];autosize=1;strokeColor=none;fillColor=none;" vertex="1" parent="WIyWlLk6GJQsqaUBKTNV-1">
          <mxGeometry x="364" y="320" width="50" height="30" as="geometry" />
        </mxCell>
        <mxCell id="n2wN_XqHJBVtsgaDFKkF-24" value="ДА" style="text;html=1;align=center;verticalAlign=middle;resizable=0;points=[];autosize=1;strokeColor=none;fillColor=none;" vertex="1" parent="WIyWlLk6GJQsqaUBKTNV-1">
          <mxGeometry x="320" y="585" width="40" height="30" as="geometry" />
        </mxCell>
        <mxCell id="n2wN_XqHJBVtsgaDFKkF-26" value="НЕТ" style="text;html=1;align=center;verticalAlign=middle;resizable=0;points=[];autosize=1;strokeColor=none;fillColor=none;" vertex="1" parent="WIyWlLk6GJQsqaUBKTNV-1">
          <mxGeometry x="210" y="550" width="50" height="30" as="geometry" />
        </mxCell>
        <mxCell id="n2wN_XqHJBVtsgaDFKkF-27" value="НЕТ" style="text;html=1;align=center;verticalAlign=middle;resizable=0;points=[];autosize=1;strokeColor=none;fillColor=none;" vertex="1" parent="WIyWlLk6GJQsqaUBKTNV-1">
          <mxGeometry x="275" y="810" width="50" height="30" as="geometry" />
        </mxCell>
        <mxCell id="n2wN_XqHJBVtsgaDFKkF-29" value="ДА" style="text;html=1;align=center;verticalAlign=middle;resizable=0;points=[];autosize=1;strokeColor=none;fillColor=none;" vertex="1" parent="WIyWlLk6GJQsqaUBKTNV-1">
          <mxGeometry x="420" y="760" width="40" height="30" as="geometry" />
        </mxCell>
      </root>
    </mxGraphModel>
  </diagram>
</mxfile>
